<mxfile host="app.diagrams.net" modified="2021-09-30T09:06:18.576Z" agent="5.0 (Macintosh; Intel Mac OS X 10_15_7) AppleWebKit/537.36 (KHTML, like Gecko) Chrome/93.0.4577.63 Safari/537.36" etag="CLAPuEfyjAZmfFdgcq9w" version="14.8.0" type="github">
  <diagram id="BcgEDI9MXjw09uxJ8ooX" name="第 1 页">
    <mxGraphModel dx="610" dy="1272" grid="1" gridSize="10" guides="1" tooltips="1" connect="1" arrows="1" fold="1" page="1" pageScale="1" pageWidth="827" pageHeight="1169" math="0" shadow="0">
      <root>
        <mxCell id="0" />
        <mxCell id="1" parent="0" />
        <mxCell id="oxxV7RY9K_nYabu_jhcD-1" value="&lt;pre style=&quot;background-color: #2b2b2b ; color: #a9b7c6 ; font-family: &amp;#34;menlo-regular&amp;#34; , monospace ; font-size: 12.0pt&quot;&gt;&lt;span style=&quot;color: #6fafbd&quot;&gt;WasmModuleDeployment&lt;/span&gt;&lt;/pre&gt;" style="rounded=0;whiteSpace=wrap;html=1;" vertex="1" parent="1">
          <mxGeometry x="100" y="120" width="230" height="70" as="geometry" />
        </mxCell>
        <mxCell id="oxxV7RY9K_nYabu_jhcD-5" style="edgeStyle=orthogonalEdgeStyle;rounded=0;orthogonalLoop=1;jettySize=auto;html=1;exitX=0.5;exitY=1;exitDx=0;exitDy=0;entryX=0.5;entryY=0;entryDx=0;entryDy=0;" edge="1" parent="1" source="oxxV7RY9K_nYabu_jhcD-3" target="oxxV7RY9K_nYabu_jhcD-4">
          <mxGeometry relative="1" as="geometry" />
        </mxCell>
        <mxCell id="oxxV7RY9K_nYabu_jhcD-3" value="reconcile" style="ellipse;whiteSpace=wrap;html=1;" vertex="1" parent="1">
          <mxGeometry x="155" y="190" width="120" height="80" as="geometry" />
        </mxCell>
        <mxCell id="oxxV7RY9K_nYabu_jhcD-12" style="edgeStyle=orthogonalEdgeStyle;curved=1;rounded=0;orthogonalLoop=1;jettySize=auto;html=1;exitX=0.5;exitY=1;exitDx=0;exitDy=0;entryX=1;entryY=0;entryDx=0;entryDy=0;" edge="1" parent="1" source="oxxV7RY9K_nYabu_jhcD-4" target="oxxV7RY9K_nYabu_jhcD-8">
          <mxGeometry relative="1" as="geometry" />
        </mxCell>
        <mxCell id="oxxV7RY9K_nYabu_jhcD-4" value="&lt;pre style=&quot;background-color: #2b2b2b ; color: #a9b7c6 ; font-family: &amp;#34;menlo-regular&amp;#34; , monospace ; font-size: 12.0pt&quot;&gt;&lt;span style=&quot;color: #b09d79&quot;&gt;doRenderTemplate&lt;/span&gt;&lt;/pre&gt;" style="rounded=0;whiteSpace=wrap;html=1;" vertex="1" parent="1">
          <mxGeometry x="117.5" y="310" width="195" height="70" as="geometry" />
        </mxCell>
        <mxCell id="oxxV7RY9K_nYabu_jhcD-6" value="渲染模版" style="text;html=1;strokeColor=none;fillColor=none;align=center;verticalAlign=middle;whiteSpace=wrap;rounded=0;" vertex="1" parent="1">
          <mxGeometry x="90" y="310" width="130" height="20" as="geometry" />
        </mxCell>
        <mxCell id="oxxV7RY9K_nYabu_jhcD-14" style="edgeStyle=orthogonalEdgeStyle;curved=1;rounded=0;orthogonalLoop=1;jettySize=auto;html=1;exitX=0.5;exitY=1;exitDx=0;exitDy=0;entryX=0.5;entryY=0;entryDx=0;entryDy=0;" edge="1" parent="1" source="oxxV7RY9K_nYabu_jhcD-7" target="oxxV7RY9K_nYabu_jhcD-13">
          <mxGeometry relative="1" as="geometry" />
        </mxCell>
        <mxCell id="oxxV7RY9K_nYabu_jhcD-7" value="&lt;pre style=&quot;background-color: #2b2b2b ; color: #a9b7c6 ; font-family: &amp;#34;menlo-regular&amp;#34; , monospace ; font-size: 12.0pt&quot;&gt;&lt;span style=&quot;color: #b09d79&quot;&gt;doPullWasmModule&lt;/span&gt;&lt;/pre&gt;" style="rounded=0;whiteSpace=wrap;html=1;" vertex="1" parent="1">
          <mxGeometry x="130" y="410" width="170" height="70" as="geometry" />
        </mxCell>
        <mxCell id="oxxV7RY9K_nYabu_jhcD-8" value="拉取WASM模块" style="text;html=1;strokeColor=none;fillColor=none;align=center;verticalAlign=middle;whiteSpace=wrap;rounded=0;" vertex="1" parent="1">
          <mxGeometry x="132.5" y="410" width="100" height="20" as="geometry" />
        </mxCell>
        <mxCell id="oxxV7RY9K_nYabu_jhcD-17" style="edgeStyle=orthogonalEdgeStyle;curved=1;rounded=0;orthogonalLoop=1;jettySize=auto;html=1;exitX=0.5;exitY=1;exitDx=0;exitDy=0;" edge="1" parent="1" source="oxxV7RY9K_nYabu_jhcD-13" target="oxxV7RY9K_nYabu_jhcD-16">
          <mxGeometry relative="1" as="geometry" />
        </mxCell>
        <mxCell id="oxxV7RY9K_nYabu_jhcD-13" value="&lt;pre style=&quot;background-color: #2b2b2b ; color: #a9b7c6 ; font-family: &amp;#34;menlo-regular&amp;#34; , monospace ; font-size: 12.0pt&quot;&gt;&lt;pre style=&quot;font-family: , monospace ; font-size: 12pt&quot;&gt;&lt;span style=&quot;color: #b09d79&quot;&gt;doSyncWasmModule&lt;/span&gt;&lt;/pre&gt;&lt;/pre&gt;" style="rounded=0;whiteSpace=wrap;html=1;" vertex="1" parent="1">
          <mxGeometry x="117.5" y="515" width="200" height="70" as="geometry" />
        </mxCell>
        <mxCell id="oxxV7RY9K_nYabu_jhcD-15" value="等待拉取完成" style="text;html=1;strokeColor=none;fillColor=none;align=center;verticalAlign=middle;whiteSpace=wrap;rounded=0;" vertex="1" parent="1">
          <mxGeometry x="100" y="515" width="110" height="25" as="geometry" />
        </mxCell>
        <mxCell id="oxxV7RY9K_nYabu_jhcD-16" value="&lt;pre style=&quot;background-color: #2b2b2b ; color: #a9b7c6 ; font-family: &amp;#34;menlo-regular&amp;#34; , monospace ; font-size: 12.0pt&quot;&gt;&lt;span style=&quot;color: #b09d79&quot;&gt;doApplyEnvoyFilters&lt;/span&gt;&lt;/pre&gt;" style="rounded=0;whiteSpace=wrap;html=1;" vertex="1" parent="1">
          <mxGeometry x="112.5" y="610" width="210" height="70" as="geometry" />
        </mxCell>
        <mxCell id="oxxV7RY9K_nYabu_jhcD-18" value="创建具体的envoyfilter" style="text;html=1;strokeColor=none;fillColor=none;align=center;verticalAlign=middle;whiteSpace=wrap;rounded=0;" vertex="1" parent="1">
          <mxGeometry x="117.5" y="620" width="130" height="10" as="geometry" />
        </mxCell>
        <mxCell id="oxxV7RY9K_nYabu_jhcD-19" value="controller" style="text;html=1;strokeColor=none;fillColor=none;align=center;verticalAlign=middle;whiteSpace=wrap;rounded=0;" vertex="1" parent="1">
          <mxGeometry x="110" y="120" width="40" height="20" as="geometry" />
        </mxCell>
      </root>
    </mxGraphModel>
  </diagram>
</mxfile>
